<svg width="181" height="183" viewBox="0 0 181 183" fill="none" xmlns="http://www.w3.org/2000/svg">
<path d="M70.0993 103.018L73.3897 78.6655M70.0993 103.018L93.7904 97.0945M70.0993 103.018L88.5257 120.131M70.0993 103.018L68.125 127.371M70.0993 103.018L52.989 89.8545M70.0993 103.018L51.0147 111.575M73.3897 78.6655L97.0809 71.4255M73.3897 78.6655L52.989 62.8691M97.0809 71.4255L93.7904 97.0945M97.0809 71.4255L118.14 88.5382M97.0809 71.4255L120.772 66.16M97.0809 71.4255L99.7132 51.0218M97.0809 71.4255L78.6544 55.6291M93.7904 97.0945L113.533 114.207M88.5257 120.131L113.533 114.207M88.5257 120.131L85.8934 145.142M113.533 114.207L118.14 88.5382M113.533 114.207L133.276 103.018M113.533 114.207L106.294 133.953M113.533 114.207L129.985 125.396M118.14 88.5382L142.489 80.64M133.276 103.018L142.489 80.64M133.276 103.018L153.018 116.84M142.489 80.64L120.772 66.16M142.489 80.64L138.54 56.2873M142.489 80.64L153.018 67.4764M142.489 80.64L151.044 93.8036M85.8934 145.142L106.294 133.953M85.8934 145.142L101.687 154.356M85.8934 145.142L68.125 127.371M85.8934 145.142L79.3125 158.305M85.8934 145.142L64.8346 143.825M106.294 133.953L125.379 149.749M125.379 149.749L129.985 125.396M125.379 149.749L141.173 135.269M125.379 149.749L133.276 154.356M125.379 149.749L116.165 160.938M125.379 149.749L101.687 154.356M129.985 125.396L153.018 116.84M153.018 116.84L151.044 93.8036M153.018 116.84L164.864 104.993M153.018 116.84L141.173 135.269M153.018 116.84L158.941 125.396M120.772 66.16L122.746 40.4909M122.746 40.4909L138.54 56.2873M122.746 40.4909L99.7132 51.0218M122.746 40.4909L129.985 35.2255M122.746 40.4909L105.636 31.9345M138.54 56.2873L154.335 41.8073M154.335 41.8073L153.018 67.4764M154.335 41.8073L169.471 51.0218M154.335 41.8073L129.985 35.2255M154.335 41.8073L158.941 35.2255M154.335 41.8073L138.54 29.3018M154.335 41.8073L149.399 31.2764M153.018 67.4764L169.471 82.6145M169.471 82.6145L151.044 93.8036M169.471 82.6145L164.864 104.993M169.471 82.6145L168.812 96.4364M169.471 82.6145V74.0582M164.864 104.993L174.735 116.84M169.471 51.0218L162.232 43.1236L158.941 35.2255M169.471 51.0218V70.1091M141.173 135.269L156.309 149.749M158.941 125.396L156.309 149.749M158.941 125.396L174.735 116.84M156.309 149.749L164.864 131.32L174.735 116.84M156.309 149.749L133.276 154.356M156.309 149.749L138.54 160.938L131.301 169.495M174.735 116.84L168.812 96.4364M174.735 116.84V103.018L180 88.5382M133.276 154.356L131.301 169.495M131.301 169.495L116.165 160.938M131.301 169.495L107.154 168.178M131.301 169.495L114.191 174.102L104.32 182M116.165 160.938L107.61 165.954M101.687 154.356L97.0809 172.127M97.0809 172.127L79.3125 158.305M97.0809 172.127L76.0221 165.545M97.0809 172.127L88.5257 177.393M97.0809 172.127L107.61 165.954M68.125 127.371L45.75 135.269M79.3125 158.305L56.9375 160.938M79.3125 158.305L76.0221 165.545M99.7132 51.0218L83.261 31.9345M129.985 35.2255L118.14 15.48M158.941 35.2255L149.399 31.2764M118.14 15.48L110.243 2.97455M118.14 15.48L124.721 19.9387M118.14 15.48L105.636 31.9345M118.14 15.48L99.0551 12.8473M118.14 15.48L93.7904 19.9387M138.54 29.3018L144.463 20.7455M138.54 29.3018L124.721 19.9387M144.463 20.7455L149.399 31.2764M144.463 20.7455L135.908 18.1127M127.353 15.48L110.243 2.97455M127.353 15.48L124.721 19.9387M127.353 15.48L135.908 18.1127M110.243 2.97455L99.0551 12.8473M110.243 2.97455L92.4743 5.60727M135.908 18.1127L132.618 14.1636L124.721 12.1891M105.636 31.9345H83.261M99.0551 12.8473L77.9963 6.92364M77.9963 6.92364L93.7904 19.9387M77.9963 6.92364L70.0993 26.6691M77.9963 6.92364L56.9375 18.1127M93.7904 19.9387L83.261 31.9345M83.261 31.9345L78.6544 55.6291M83.261 31.9345L63.5184 44.44M83.261 31.9345L70.0993 26.6691M78.6544 55.6291L52.989 62.8691M52.989 62.8691V89.8545M52.989 62.8691L40.4853 51.68M52.989 62.8691L39.1691 76.0327M52.989 62.8691L63.5184 44.44M52.989 89.8545L29.2978 99.0691M51.0147 111.575L29.2978 99.0691M51.0147 111.575L45.75 135.269M29.2978 99.0691L39.1691 76.0327M29.2978 99.0691L22.7169 88.5382M29.2978 99.0691L22.7169 111.575M29.2978 99.0691L35.2206 121.447M45.75 135.269L64.8346 143.825M45.75 135.269L43.1176 142.509M45.75 135.269L35.2206 121.447M64.8346 143.825L56.9375 160.938M56.9375 160.938L76.0221 165.545M56.9375 160.938L66.1507 177.393M56.9375 160.938L43.1176 142.509M56.9375 160.938L39.1691 149.749M56.9375 160.938L33.9044 158.305M76.0221 165.545L66.1507 177.393M66.1507 177.393H88.5257M66.1507 177.393L51.0147 168.178L33.9044 158.305M88.5257 177.393L104.32 182M104.32 182L107.154 168.178M107.61 165.954L107.154 168.178M168.812 96.4364L180 88.5382M180 88.5382L169.471 74.0582M180 88.5382L174.691 74.0582M169.471 74.0582V70.1091M172.761 68.7927L169.471 70.1091M172.761 68.7927L171.372 56.2873M172.761 68.7927L174.691 74.0582M170.787 51.0218L171.372 56.2873M171.372 56.2873L178.684 62.8691L174.691 74.0582M43.1176 142.509L22.7169 135.269M22.7169 135.269L39.1691 149.749M22.7169 135.269L9.55515 128.687L23.375 143.167L33.9044 158.305M22.7169 135.269V111.575M22.7169 135.269L18.1103 117.498M22.7169 135.269L35.2206 121.447M39.1691 149.749L33.9044 158.305M18.1103 117.498L9.55515 127.371V112.891L1 93.8036L9.55515 85.2473L4.29044 66.16M18.1103 117.498L6.92279 99.0691M4.29044 66.16L18.1103 49.0473M4.29044 66.16L16.7941 59.5782M4.29044 66.16L12.8456 75.3745M18.1103 49.0473V35.2255M18.1103 49.0473L16.7941 59.5782M18.1103 35.2255L31.9301 46.4145M18.1103 35.2255L35.8787 24.6945L45.75 12.8473M18.1103 35.2255L40.4853 29.3018M31.9301 46.4145L19.4265 63.5273M31.9301 46.4145L47.0662 29.3018M19.4265 63.5273L16.7941 59.5782M19.4265 63.5273L12.8456 75.3745M19.4265 63.5273L22.7169 88.5382M19.4265 63.5273L40.4853 51.68M19.4265 63.5273L39.1691 76.0327M12.8456 75.3745L6.92279 99.0691M6.92279 99.0691L22.7169 88.5382M6.92279 99.0691L22.7169 111.575M6.92279 99.0691L9.55515 111.575M40.4853 51.68L47.0662 29.3018M47.0662 29.3018L63.5184 44.44M47.0662 29.3018L70.0993 26.6691M47.0662 29.3018L56.9375 18.1127M47.0662 29.3018H40.4853M56.9375 18.1127L45.75 12.8473M56.9375 18.1127L62.66 12.8473M45.75 12.8473H62.66M45.75 12.8473L40.4853 29.3018M62.66 12.8473L73.3897 2.97455L92.4743 5.60727M92.4743 5.60727L102.346 1L106.294 3.63273M92.4743 5.60727L77.3382 6.26545" stroke="#111" stroke-width="0.67"/>
</svg>
