<?xml version="1.0" encoding="UTF-8"?>
<svg id="Layer_2" data-name="Layer 2" xmlns="http://www.w3.org/2000/svg" viewBox="0 0 139.11 146">
  <defs>
    <style>
      .cls-1 {
        fill: none;
        stroke: #111;
        stroke-width: 1.5px;
        stroke-linecap: round;
        stroke-linejoin: round;
      }
    </style>
  </defs>
  <g id="Layer_1-2" data-name="Layer 1">
    <path class="cls-1" d="M89.5,86.5l25.8,38.6c.1.2.2.2.2,0l-3.9-30.6-22-8h-.1Z"/>
    <path class="cls-1" d="M136.2,80.6l-46.7,6,19-19,27.7,12.8v.2Z"/>
    <polyline class="cls-1" points="111.5 94.5 136.5 80.5 132.6 75.9 118.5 59.5"/>
    <path class="cls-1" d="M89.5,86.5l14.9-37.7q0-.2-.2-.1l-24.7,17.8,10,20Z"/>
    <polygon class="cls-1" points="87.5 112.5 89.5 86.5 68.5 127.5 87.5 112.5"/>
    <polyline class="cls-1" points="72.9 58.5 79.5 66.5 59.5 79.5 43.5 65.5 48.3 87.5 56.5 93.5 51.5 104.5 68.5 127.5 66.5 95.5 59.5 79.5 89.5 86.5 66.5 95.5 56.5 93.5"/>
    <path class="cls-1" d="M44.5,39.5l-27-13,26,39,1-26,9.7-11.6q.2-.2.2,0l-10.9,37.5,17-7-6-31"/>
    <polyline class="cls-1" points="50.5 32.4 47.5 28.5 17.5 26.5 24.5 55.5 .5 71.5"/>
    <polyline class="cls-1" points="60.5 28.5 58.5 .5 47.5 28.5"/>
    <path class="cls-1" d="M54.5,27.5l30,11-7,9-23-20c1,1-.3-.1,0,0Z"/>
    <path class="cls-1" d="M78.5,19.5L102.5,3.5l-18,34.5-6-18.5L58.5.5l26,38,19.6,9.8c.2.1.2.2,0,.2l-26.5-1-4.7,11h-12.3l-1,21-36.2,26.1,30.2,3.9"/>
    <polyline class="cls-1" points="106.8 48.5 131.5 31.5 84.5 38.5 106.8 48.5 106.5 59.5"/>
    <line class="cls-1" x1="104.5" y1="48.5" x2="108.5" y2="67.5"/>
    <polyline class="cls-1" points="106.5 59.5 118.5 59.5 131.5 31.5 105.5 30.5"/>
    <polyline class="cls-1" points="132.6 75.9 135.5 73.5 119.2 58.1"/>
    <line class="cls-1" x1="130.2" y1="73.1" x2="135.5" y2="73.5"/>
    <polyline class="cls-1" points="102.5 3.5 105.5 30.5 84.5 38.5"/>
    <path class="cls-1" d="M128,85.3l10.6,17.2c-.8-.1.1.2,0,0l-15.2-14.6"/>
    <line class="cls-1" x1="112.7" y1="103.5" x2="138.5" y2="102.5"/>
    <path class="cls-1" d="M87.5,112.5l27.2,12.7c.4.2.4.3,0,.2l-24.2-4.8-6.4-5.3"/>
    <path class="cls-1" d="M90.5,120.5l-11.9,24.7c0,.1-.2.1-.2,0l-4.3-22.2"/>
    <polygon class="cls-1" points=".5 71.5 43.5 65.5 26.5 83.5 .5 71.5"/>
    <line class="cls-1" x1="43.5" y1="65.5" x2="24.5" y2="55.5"/>
    <polyline class="cls-1" points="18.5 59.5 7.5 43.5 21.1 41.1"/>
    <line class="cls-1" x1="21.8" y1="44.3" x2="7.5" y2="43.5"/>
    <polyline class="cls-1" points=".5 71.5 22.1 88.5 11.5 113.5 38.4 113.5 43.5 135.8 63.5 124.5"/>
    <polyline class="cls-1" points="78.5 145.5 53.5 109.5 43.5 135.8"/>
    <line class="cls-1" x1="138.5" y1="102.5" x2="112.7" y2="106.1"/>
    <polyline class="cls-1" points="23.5 105.5 11.5 113.5 53.5 109.5 38.4 113.5"/>
    <polyline class="cls-1" points="26.5 83.5 23.4 105.7 51.5 104.5"/>
    <line class="cls-1" x1="22.1" y1="88.5" x2="25.8" y2="88.5"/>
  </g>
</svg>