<svg width="101" height="103" viewBox="0 0 101 103" fill="none" xmlns="http://www.w3.org/2000/svg">
<path d="M28.3465 86.8786L34.7907 99.0303L44.155 94.354M28.3465 86.8786L26.3327 67.8319M28.3465 86.8786L28.6486 89.8483L18.8144 90.5992L17.2705 77.3552M26.3327 67.8319L29.5548 67.4018M26.3327 67.8319V58.6157M37.0731 66.3982L36.1668 65.7416M37.0731 66.3982L39.691 67.8319L42.6111 69.0607L44.155 69.625M37.0731 66.3982L33.3139 66.9M44.155 94.354L34.0036 75.6144M44.155 94.354L54.2912 102L60.5814 94.354M29.5548 67.4018L34.0036 75.6144M29.5548 67.4018L33.3139 66.9M26.3327 58.6157L36.1668 65.7416M26.3327 58.6157L22.0365 57.6599M26.3327 58.6157L32.3238 60.9539M17.2705 77.3552L16.3643 79.5398L7 77.3552L10.2221 63.4627M17.2705 77.3552L22.0365 57.6599M22.0365 57.6599L24.5 50.6264M10.2221 63.4627L20.4926 48M10.2221 63.4627L8.5 66.3982L0.5 60.5L8.5 49L24.5 37.5M20.4926 48L27.5 40.5L28.876 49.5M20.4926 48L24.5 50.6264M29.5548 53.9393L30.0247 56.909L31.5686 59.5373L32.3238 60.9539M29.5548 53.9393L28.876 49.5M29.5548 53.9393L24.5 50.6264M36.1668 65.7416L33.079 62.3704L32.3238 60.9539M54.2912 70.6308H51.0691H49.8272M54.2912 70.6308L57.5133 69.0607M54.2912 70.6308L48 73.8034M57.5133 69.0607L61.3396 67.4018L61.8604 66.8966M57.5133 69.0607L56.3851 72.7301M63.9576 64.8622L66 63.1959M63.9576 64.8622V69.0607M63.9576 64.8622L61.8604 66.8966M68.5558 58.6157L67.0118 62.3704L66 63.1959M68.5558 58.6157L69.1599 54.6903M68.5558 58.6157L71.4324 65.7416M69.1599 54.6903L70 51.5M69.1599 54.6903L70 60.9539M34.0036 75.6144L37.0731 73.8034M44.155 69.625L46.9072 70.6308H49.8272M44.155 69.625L33.3139 66.9M44.155 69.625L40.614 71.7142M75 86.8786L71.1737 96.7092L61.3396 93.4324L60.5814 94.354M75 86.8786L54.2912 79.5398M75 86.8786H86V76.3995H82.5M54.2912 79.5398L45.8332 76.3995M54.2912 79.5398L55.2568 76.3995M45.8332 76.3995L49.8272 70.6308M45.8332 76.3995L43.5 79.5398M49.8272 70.6308L40.614 71.7142M28.876 49.5L30.0247 44.5M30.0247 44.5L24.5 37.5M30.0247 44.5L30.4541 42M24.5 37.5L32 33L30.4541 42M30.4541 42L33.079 38.5M33.079 38.5L31.5686 29.5M33.079 38.5L34.732 36M31.5686 29.5L39.691 28.5L34.732 36M31.5686 29.5L10.2221 34.5L0.5 41L6 50M34.732 36L39 33.5M39 33.5L39.691 23.5M39 33.5L42.6111 30.8319M39.691 23.5L49.8272 25.5L42.6111 30.8319M39.691 23.5L23 20.5M42.6111 30.8319H46.9072L52 22.5L39.691 13M39.691 13L32 11.9985M39.691 13L34.0036 9.5M32 11.9985L20.4926 10.5L18 20.5H23M32 11.9985L34.0036 9.5M34.0036 9.5L39.691 1L48.5 7.6359M54.2912 11.9985L51.0691 6M54.2912 11.9985L48.5 7.6359M54.2912 11.9985L62.9199 26.5M51.0691 6L48.5 7.6359M51.0691 6L60 1L66 11M67.5 13.5L71.5 32.5M67.5 13.5V11M67.5 13.5L66 11M71.5 32.5L67 33.3571M71.5 32.5L72.5 40.3864M61 34.5L57 31.5M61 34.5L67 33.3571M61 34.5L63.9576 36.6683M57 31.5L67 33.3571M57 31.5L55 30.8319M67 33.3571L62.9199 26.5M53 29.5L55 30.8319M55 30.8319L62.9199 26.5M67.5 11H66M67.5 11L76.5 9L79 20.5M79 20.5L77 41M79 20.5V18.5L89.5 20L88 30.8319M77 41L72.5 40.3864M77 41L75.5 50M66 39.5L63.9576 36.6683M66 39.5L72.5 40.3864M66 39.5L69.1599 43.7885M63.9576 36.6683L68.5558 39.5M73 49L75.5 50M73 49L69.1599 43.7885M73 49L70 47.5M75.5 50L79 51.5M69.1599 43.7885L70 47.5M70 47.5V51.5M70 47.5L70.8835 52.494M79 51.5L88 33.5M79 51.5L75.4755 57.6599M89 31.5L88 30.8319M89 31.5L88 33.5M89 31.5L98 36L92.5 47M88 30.8319V33.5M70 51.5L70.8835 52.494M78 60.5L94 46L100.5 53L89.5 63.4627M78 60.5L71.4324 65.7416M78 60.5L75.4755 57.6599M89.5 63.4627L73 69.625M89.5 63.4627L92.5 62.3704L96 71.5L82.5 76.3995M73 69.625L71.4324 65.7416M73 69.625L63.9576 72.7301M75.4755 57.6599L70.8835 52.494M82.5 76.3995H63.9576M63.9576 76.3995V72.7301M63.9576 76.3995H55.2568M66 63.1959L63.9576 69.0607M63.9576 69.0607V72.7301M55.2568 76.3995L56.3851 72.7301M56.3851 72.7301L61.8604 66.8966M8.5 34.5L7 24.5L23 20.5M60.5814 94.354L43.5 79.5398M43.5 79.5398L37.0731 73.8034M37.0731 73.8034L40.614 71.7142" stroke="#111" stroke-width="1.5"/>
<path d="M47.5 30.5L60 28.5L52 22.5" stroke="#111" stroke-width="1.5"/>
</svg>
