<svg width="200" height="193" viewBox="0 0 200 193" fill="none" xmlns="http://www.w3.org/2000/svg">
<path d="M181.231 175.984L158.696 65.7528" stroke="#111" stroke-width="1.5" stroke-linecap="round"/>
<path d="M1 118.834L151.958 0.999966" stroke="#111" stroke-width="1.5" stroke-linecap="round"/>
<path d="M30.593 99.5576L141.096 11.5895" stroke="#111" stroke-width="1.5" stroke-linecap="round"/>
<path d="M77.835 77.8373L143.896 24.9996" stroke="#111" stroke-width="1.5" stroke-linecap="round"/>
<path d="M152.162 1.58838L172.796 42.0428" stroke="#111" stroke-width="1.5" stroke-linecap="round"/>
<path d="M199.421 192L172.542 42.1285" stroke="#111" stroke-width="1.5" stroke-linecap="round"/>
<path d="M158.713 64.5691L172.559 41.7626" stroke="#111" stroke-width="1.5" stroke-linecap="round"/>
<path d="M31.1663 120.446L158.774 64.5152" stroke="#111" stroke-width="1.5" stroke-linecap="round"/>
<path d="M1.13013 119.356L199.33 191.849" stroke="#111" stroke-width="1.5" stroke-linecap="round"/>
<path d="M30.4531 120.442L181.411 175.83" stroke="#111" stroke-width="1.5" stroke-linecap="round"/>
<path d="M180.959 174.898L158.696 64.6665" stroke="#111" stroke-width="1.5" stroke-linecap="round"/>
<path d="M153.259 67.5918L181.224 174.837" stroke="#111" stroke-width="1.5" stroke-linecap="round"/>
<path d="M40.5002 116.642L178.426 169.314" stroke="#111" stroke-width="1.5" stroke-linecap="round"/>
<path d="M181.462 176.407L199.555 191.976" stroke="#111" stroke-width="1.5" stroke-linecap="round"/>
<path d="M172.7 41.9666L153.151 45.4961" stroke="#111" stroke-width="1.5" stroke-linecap="round"/>
<path d="M171.102 42.2283L3.31135 117.707" stroke="#111" stroke-width="1.5" stroke-linecap="round"/>
<path d="M153.182 45.2151L30.4615 99.7879" stroke="#111" stroke-width="1.5" stroke-linecap="round"/>
<path d="M152.999 45.4076L141.053 11.4693" stroke="#111" stroke-width="1.5" stroke-linecap="round"/>
<path d="M148.922 47.2922L141.048 11.4534" stroke="#111" stroke-width="1.5" stroke-linecap="round"/>
<path d="M1.28076 118.556L30.3319 99.5502" stroke="#111" stroke-width="1.5" stroke-linecap="round"/>
<path d="M30.6702 120.705L1.07597 119.076" stroke="#111" stroke-width="1.5" stroke-linecap="round"/>
<path d="M152.135 1.20544L141.274 11.5227" stroke="#111" stroke-width="1.5" stroke-linecap="round"/>
</svg>
