<?xml version="1.0" encoding="UTF-8"?>
<svg id="Layer_1" xmlns="http://www.w3.org/2000/svg" version="1.1" viewBox="0 0 161 163">
  <!-- Generator: Adobe Illustrator 29.2.1, SVG Export Plug-In . SVG Version: 2.1.0 Build 116)  -->
  <defs>
    <style>
      .st0, .st1 {
        fill: none;
        stroke: #111;
        stroke-width: 0.6px;
      }

      .st1 {
        stroke-linecap: round;
      }
    </style>
  </defs>
  <path class="st0" d="M34,133l22-3.9M34,133l6.1-10.3M34,133v-21M40.1,122.7l11.5-2.2M40.1,122.7l2.8-4.9M40.1,122.7v-8.4M42.9,117.8l2.8-1.5M42.9,117.8l-.8-2.6"/>
  <path class="st0" d="M65,124.2v21.8M65,146l.8-1.6M65,146l19.9-15.8M91.5,95l-25.6,49.4M96,121.5l-11.1,8.7M65.8,144.4l9.3-12.8M75.1,131.6l11.7-8.4M75.1,131.6l3.4-6.7M87.6,130.9l-2.6-.6"/>
  <path class="st0" d="M119.2,117.4l6.8-32.6-5.5-10.8-7.1,29.3M119.2,117.4l-5.8-14.1M119.2,117.4l-36.1-44.2,5.1-2.2,25.2,32.4M119.2,117.4l-14.8-6.9M119.2,117.4l-40.6,7.1,6.2-11,19.6-3.1M76.5,76l4.9,6.1M104.4,110.5l-18.8-23.3M61.3,82.6l3.1,1.9M85.6,87.2l-2.5,1.7M85.6,87.2l-4.1-5.1M85.6,87.2l-15.2,11.3M85.6,87.2l-20.4,37.4-11.2-17.9M83.1,89l-5.5,3.8-13.2-8.2M83.1,89l-14.2-9.5,5-2.3,7.5,5M64.4,84.5l2.5,14M65.2,146l-21.2-40.7"/>
  <path class="st0" d="M40,30v14.6l3,.4v-10.1s-3-4.9-3-4.9Z"/>
  <path class="st0" d="M34,12l35,17.7-2.8,3.9-15.9-8.1,11,13.4,7.6,10.4-6-.8L34,12ZM34,12v56.4l2.9,5.6,3.4-5.6v-9"/>
  <path class="st0" d="M40.4,30.7l-6.4-18.7,17.1,13.6M12,46.7l21.9-4.3v8.7l-2.5.5M12,46.7l18.7,34.3,6-8-10.7-20.7M12,46.7l14,5.7M26.5,52.6l-.5-.2M26.5,52.6l7.4,4.7v-4.1l-2.5-1.6M26.5,52.6l4.9-1"/>
  <path class="st0" d="M36.3,44.3l14.1,12.5M36.3,44.3l6.3,21M36.3,44.3l36.6,5.1M50.5,56.9l10.6,1.3M50.5,56.9l3,10.2M81.6,60.6l13.2-6.4-.9-1.8-17.7-2.5M81.6,60.6l-5.3,2.3M81.6,60.6l-8.7-1M61.1,58.1l-7.6,8.9M61.1,58.1l3.8,3.6-3.8,2.9M61.1,58.1l7.4,8.1M61.1,58.1l11.8,1.4M53.5,67.1l.8,2.8M54.3,69.8l.7,2.3M54.3,69.8l6.8-5.2M34.7,95l-18.7,8M34.7,95l1.8-2.5M34.7,95l3.3.4M46.5,78.6l-3.9-13.2M46.5,78.6l2.6,8.7M46.5,78.6l-10,14M42.6,65.4l-13.3,18.8M16,103l15.5,1.6M16,103l1.7-2.4M1,99.8l27.9-21.3,1.2,1.5-10.6,8.3M1,99.8l25.4-11.5M1,99.8l18.4-11.5M1,99.8l49.5,18.2-4.8-8.4M1,99.8l16.7.8M19.4,88.3l9.9-4.1M29.3,84.2l-2.9,4.1M26.4,88.3l-8.7,12.3M45.7,109.6l-14.1-5M45.7,109.6l-1.9-3.7M31.5,104.6l12.2,1.3M43.8,105.9l30,3.1,5.4-9.1-31-3.3M49.1,87.3l-4.2,1.7M49.1,87.3l2.4,8.1M36.5,92.5l.6-.3M37.2,92.3l.9,3.1M37.2,92.3l7.8-3.2M38,95.4l10.2,1.1M48.2,96.5l-.6-1.5M44.9,89l2.7,6M47.6,95l4,.4M51.6,95.4l.5,1.7,10.7,1.3-4.2-14.1M55,72.2l6.1-2.6M55,72.2l.7,2.4M61.1,64.7v4.9M61.1,69.5l7.4-3.2M68.6,66.3l7.8-3.4M76.3,62.9l-3.4-3.4M55.8,74.6l52.1-22.7M55.8,74.6l2.8,9.6M107.8,51.9h-.3M107.8,51.9l-9.4,15.2M107.5,51.9l-12.3,2.3-2.8-8.2M107.5,51.9l-6.7-14.9-10.7,2,2.3,7M107.5,51.9l2.9,17.9M98.4,67.1l-39.8,17.1M98.4,67.1l5.3,23.5,10.2,11.8v-10.3M121,74.1l-6.1,24.1-1-6.2M111.2,75.1l1.6-7.5M111.2,75.1l-.8-5.2M111.2,75.1l2.7,17M117,65.8h-3.7l-.4,1.8M112.8,67.6l-2.5,2.2M118.7,69.3l-4.7,22.7M81.6,40.4l10.7,5.6M94,51.9l-8.9-4.3M73.4,42.1l1.4.7M83.8,50.7l1.3-3.1M85.1,47.6l-7.3-3.5M76.3,49.9l1.4-5.8M76.3,49.9l-3.4-.5M77.7,44.1l-2.9-1.4M72.9,49.5l1.9-6.7"/>
  <path class="st0" d="M125,57h-3"/>
  <path class="st1" d="M160,62l-23,26-4-8,9.5-10.7s17.5-7.3,17.5-7.3Z"/>
  <path class="st0" d="M142,70l-17-3"/>
  <path class="st1" d="M153,117l-32.8-2.8,1.8-10.6,15.1,2M153,117l-15.9-11.4M153,117l-27.8-49.7-9.2-1.3,21.1,39.6"/>
  <path class="st1" d="M107.5,120.9l2.1,8.7,2.4,4.4"/>
  <path class="st1" d="M123,144l-4.7-26M123,144l-10.7-9.8M123,144l-27.5-9.8M109,119l3.3,15.2M112.3,134.2l-12.3-4.7"/>
  <path class="st1" d="M66,144.8l5.1,17.2,4.9-17.9-2-5.1-8,5.8Z"/>
  <path class="st1" d="M109,119l-38,43,4.9-17.9,20.2-22.6"/>
  <path class="st1" d="M112,134l-2.2-4-7.3-3-2.6,2.5"/>
  <path class="st1" d="M160,62.4l-43.8-6.4-5.2,10"/>
  <path class="st1" d="M131,94.4l-8,8.6,3.2-15.1,1.2-.9,3.7,7.4h0Z"/>
  <path class="st0" d="M125.2,56.9l7.8-35.9M133,21l-54.2,11.7-6.8,9.3,43.4-7.7M133,21l-17.6,13.3M133,21l-8.8,22.5M133,21l-23.3,41.2M115.4,34.3l-8.3,14.6,2.7,13.3M124.2,43.5l-2.3,13.4-3-4,5.3-9.4ZM124.2,43.5l-13.6,23.5-.9-4.8"/>
  <path class="st0" d="M89.6,1l14.4,25.8-8.6,1.8-1.9-3.4M89.6,1v17.2M89.6,1l-27.6,37.9,6,8.1,21.7-28.8M89.6,18.2l1.9,3.5M91.6,21.7l-1.9,8.5,3.8-5M91.6,21.7l1.9,3.4"/>
</svg>