<svg width="405" height="392" viewBox="0 0 405 392" fill="none" xmlns="http://www.w3.org/2000/svg">
<path d="M180.488 197.993L186.606 185.569M180.488 197.993L167.72 197.196M180.488 197.993L185.542 212.278M186.606 185.569L177.828 175.802M186.606 185.569L200.172 180.187M177.828 175.802L178.631 157.266M177.828 175.802L159.606 175.133M167.72 197.196L155.683 184.045M167.72 197.196L155.284 210.019M167.72 197.196L155.018 209.885M185.542 212.278L176.099 221.247M185.542 212.278L199.175 218.722M145.242 219.652L156.68 220.244M145.242 219.652L155.018 209.885M145.242 219.652L155.284 210.019M176.099 221.247L175.661 238.654M176.099 221.247L156.68 220.244M200.172 180.187L201.103 167.165M200.172 180.187L214.138 187.296M201.103 167.165L213.373 156.468M201.103 167.165L188.346 153.412M214.138 187.296L223.581 178.194M214.138 187.296L219.059 200.983M223.581 178.194L224.755 159.724M223.581 178.194L241.403 179.289M219.059 200.983L231.761 202.046M219.059 200.983L212.874 214.603M231.761 202.046L245.793 189.41M231.761 202.046L242.933 214.603M212.874 214.603L221.719 223.905M212.874 214.603L199.175 218.722M221.719 223.905L239.674 225.085M221.719 223.905L220.222 241.511M199.175 218.722L198.244 231.612M198.244 231.612L210.205 245.165M198.244 231.612L184.877 244.076M213.373 156.468L225.643 145.772L224.755 159.724M213.373 156.468L208.49 141.32M188.346 153.412L179.224 143.579L178.631 157.266M188.346 153.412L195.058 139.991M224.755 159.724L238.876 154.175M241.403 179.289L256.034 180.187L245.793 189.41M241.403 179.289L248.719 163.361M245.793 189.41L258.561 195.292M242.933 214.603L253.041 225.964L239.674 225.085M242.933 214.603L259.592 209.022M239.674 225.085L244.608 239.518M220.222 241.511L219.059 255.198L210.205 245.165M220.222 241.511L235.402 249.251M210.205 245.165L203.161 260.214M184.877 244.076L175.301 253.005L175.661 238.654M184.877 244.076L189.986 258.254M175.661 238.654L161.069 243.204M156.68 220.244L149.764 234.565M155.683 184.045L147.104 174.673L159.606 175.133M155.683 184.045L140.221 189.358M155.284 210.019L155.018 209.885M178.631 157.266L165.725 151.364M159.606 175.133L154.625 160.721M208.49 141.32L202.966 124.179L195.058 139.991M208.49 141.32L222.783 128.371M238.876 154.175L256.034 147.433L248.719 163.361M238.876 154.175L240.354 133.746M248.719 163.361H266.475M258.561 195.292L276.25 203.441L259.592 209.022M258.561 195.292L274.007 180.187M259.592 209.022L271.244 221.779M244.608 239.518L250.581 256.991L235.402 249.251M244.608 239.518L267.545 241.179M235.402 249.251L233.574 264.99M203.161 260.214L196.116 275.262L189.986 258.254M203.161 260.214L216.042 275.262M155.018 209.885L141.385 203.03M189.986 258.254L177.562 270.155M161.069 243.204L142.848 248.886L149.764 234.565M161.069 243.204L160.384 263.901M149.764 234.565L133.937 234.069M141.385 203.03L124.76 194.671L140.221 189.358M141.385 203.03L126.555 216.682M140.221 189.358L127.952 176.134M154.625 160.721L148.7 143.579L165.725 151.364M154.625 160.721L135.4 159.883M135.4 159.883L111.925 158.86L127.952 176.134M135.4 159.883L126.555 137.545M165.725 132.949V151.364M165.725 132.949L167.72 108.765L181.389 124.378M165.725 132.949L142.981 122.339M195.058 139.991L181.389 124.378M181.389 124.378L191.252 103.383M222.783 128.371L242.002 110.957L240.354 133.746M222.783 128.371L214.682 105.111M214.682 105.111L204.362 75.4787L191.252 103.383M214.682 105.111L235.418 85.636M263.415 124.179L240.354 133.746M263.415 124.179L289.551 113.416L276.382 141.918M263.415 124.179L264.822 94.2811M266.475 163.361H291.213L274.007 180.187M266.475 163.361L276.382 141.918M264.822 94.2811L266.608 56.3441L235.418 85.636M264.822 94.2811L352.993 58.8024L311.031 141.918M311.031 141.918H276.382M311.031 141.918H350.067L320.939 169.133M297.73 190.818L274.007 180.187M297.73 190.818L325.661 202.046L296.001 212.801M297.73 190.818L320.939 169.133M271.244 221.779L290.482 242.84L267.545 241.179M271.244 221.779L296.001 212.801M133.937 234.069L108.533 233.273L126.555 216.682M133.937 234.069L124.426 255.198M160.384 263.901L159.606 287.354L177.562 270.155M160.384 263.901L140.454 272.188M177.562 270.155L186.839 295.132M216.042 275.262L230.431 292.072L233.574 264.99M216.042 275.262L208.573 292.072M208.573 292.072L196.116 320.109L186.839 295.132M208.573 292.072L230.431 315.1M258.96 276.458L233.574 264.99M258.96 276.458L287.489 288.617L275.319 261.376M258.96 276.458V305.027M275.319 261.376L267.545 241.179M275.319 261.376L307.839 263.063M296.001 212.801L317.847 236.063M258.96 305.027V345.157L230.431 315.1M258.96 305.027L339.693 343.296L307.839 263.063M307.839 263.063L345.013 264.99L317.847 236.063M317.847 236.063L404 203.441L320.939 169.133M230.431 315.1L196.116 391L167.223 315.1M96.0309 255.198H124.426M96.0309 255.198H54.5338L82.398 229.842M96.0309 255.198L61.184 337.118L140.017 303.366M124.426 255.198L111.326 284.298L140.454 272.188M106.738 207.693L126.555 216.682M106.738 207.693L78.1419 194.671L104.61 184.821M106.738 207.693L82.398 229.842M127.952 176.134L104.61 184.821M82.398 229.842L1 198.857L85.8561 165.172M85.8561 165.172L104.61 184.821M85.8561 165.172L56.9944 135.739L93.9028 136.697M126.555 137.545L115.449 109.496L142.981 122.339M126.555 137.545L93.9028 136.697M93.9028 136.697L60.4525 55.4804L143.534 94.3475M140.454 272.188L140.017 303.366M186.839 295.132L167.223 315.1M140.017 303.366L139.456 343.363L167.223 315.1M142.981 122.339L143.534 94.3475M191.252 103.383L167.815 77.5383M143.534 94.3475L144.378 51.6934L167.815 77.5383M167.815 77.5383L197.778 1L235.418 85.636" stroke="#111" stroke-width="1.5"/>
</svg>
